<svg id="Capa_1" enable-background="new 0 0 512 512" height="512" viewBox="0 0 512 512" width="512" xmlns="http://www.w3.org/2000/svg"><g><path d="m497 350.618h-3.625l-30.361-122.855c-3.38-13.68-16.417-28.683-35.266-33.135-4.04-18.347-13.577-35.088-27.571-48.051-15.636-14.484-35.561-23.055-56.682-24.497-12.951-36.454-47.982-61.818-87.493-61.818-39.517 0-74.551 25.364-87.502 61.818-21.116 1.443-41.04 10.014-56.674 24.497-13.994 12.964-23.53 29.705-27.57 48.051-16.339 3.86-29.726 15.814-34.981 32.138-.106.329-.2.662-.283.998l-30.363 122.854h-3.629c-8.284 0-15 6.716-15 15v71.12c0 8.284 6.716 15 15 15h482c8.284 0 15-6.716 15-15v-71.12c0-8.284-6.716-15-15-15zm-318.07-198.614c7.439.456 14.065-4.609 15.594-11.892 6.06-28.885 31.915-49.85 61.479-49.85 29.558 0 55.409 20.965 61.47 49.85 1.528 7.284 8.179 12.347 15.595 11.892 28.97-1.774 53.941 16.234 63.102 41.288h-280.334c9.131-24.974 34.034-43.065 63.094-41.288zm-100.959 83.537c2.565-7.345 9.654-12.249 17.781-12.249h320.5c8.128 0 15.216 4.903 17.781 12.249l28.439 115.078h-412.941zm404.029 186.197h-452v-41.12h.304c.023 0 .045.004.068.004h451.26c.023 0 .045-.004.068-.004h.3z"/><path d="m347.407 252.016c-5.857-5.858-15.355-5.857-21.213 0l-19.938 19.938h-100.305l-20.146-20.146c-5.857-5.857-15.355-5.858-21.213 0s-5.858 15.355 0 21.213l13.932 13.932-13.932 13.932c-5.858 5.858-5.858 15.355 0 21.213 5.857 5.858 15.354 5.858 21.213 0l20.146-20.146h100.306l19.938 19.938c5.857 5.857 15.355 5.858 21.213 0s5.858-15.355 0-21.213l-13.724-13.724 13.724-13.724c5.858-5.857 5.858-15.355-.001-21.213z"/></g></svg>